<?xml version="1.0" encoding="UTF-8"?>
<svg version="1.1" viewBox="0 0 2000 2000" width="1280" height="1280" xmlns="http://www.w3.org/2000/svg">
<path transform="translate(837,638)" d="m0 0 4 2 31 31 7 8 16 16 7 8 38 38 7 8 33 33 7 8 13 13 1 106h2l1-100 7-8 8-8 7-8 19-19 5-6 5-5h2l2-4 49-49 7-8 39-39 7-8 4-5h2v164h54l5 8 13 29 16 35 13 29 16 36 3 8v5l-12-6-22-13-24-14-29-17-27-16-26-15-24-14-4 1-16 16-5 6h-2l-2 4-42 42-1 2h-2l-2 4-40 40h-3l-1-6v-35l-2 1v36h-4l-12-13-45-45v-2l-4-2-7-8-35-35-7-8-4-2-28 16-27 16-52 30-29 17-35 20-2-1 11-24 16-36 14-30 9-20 17-38 5-2 55 1z" fill="#131212"/>
<path transform="translate(1165,642)" d="m0 0h2v164h54l5 8 13 29 16 35 13 29 16 36 3 8v5l-12-6-22-13-24-14-29-17-27-16-26-15-24-14-4 1-16 16-5 6h-2l-2 4-42 42-1 2h-2l-2 4-40 40h-3l-1-6 1-161 7-8 8-8 7-8 19-19 5-6 5-5h2l2-4 49-49 7-8 39-39 7-8z" fill="#131212"/>
<path transform="translate(1073,1077)" d="m0 0h16l15 2 15 5 11 6 1 4-7 15-4-1-15-7-15-3h-23l-11 3-5 4-2 4 1 8 6 5 11 3 39 6 14 5 8 6 6 8 2 7v10l-4 10-7 8-9 6-12 4-12 2h-29l-17-3-18-6-6-4-1-2 4-8 3-9 4 1 14 6 18 4h30l10-3 6-5 1-2v-6l-3-5-7-3-47-7-12-4-8-5-6-7-4-11v-10l4-11 5-6 10-7 14-5z" fill="#191818"/>
<path transform="translate(353,1077)" d="m0 0h18l18 3 13 5 9 5 1 4-5 11-2 4-6-2-11-5-11-3-7-1h-22l-11 3-5 4-2 5 1 7 6 5 11 3 34 5 14 4 10 5 8 9 3 9v10l-3 8-6 8-9 7-15 5-12 2h-27l-18-3-18-6-7-5 5-11 2-7 6 2 12 5 18 4 19 1 16-2 8-4 3-4 1-5-3-7-7-3-47-7-12-4-9-6-5-6-4-10v-12l4-10 5-6 10-7 10-4 9-2z" fill="#1A1919"/>
<path transform="translate(1598,1079)" d="m0 0h97l1 1-1 17-2 1h-70v28l67 1v18l-2 1h-66l1 30 72 1v18l-59 1h-36l-2-1z" fill="#222121"/>
<path transform="translate(733,1079)" d="m0 0h96v18l-5 1h-67v28l67 1v18l-2 1h-66l1 30 72 1 1 17-1 1-59 1h-36l-1-1-1-115z" fill="#201F1F"/>
<path transform="translate(591,1079)" d="m0 0h96l1 5-1 13-1 1h-71v28l67 1v18l-2 1h-66l1 30 72 1v18l-60 1h-34l-3-1v-115z" fill="#1F1E1E"/>
<path transform="translate(991,1078)" d="m0 0 4 1-15 12-17 13-11 9-14 11-14 10 1 3 27 21 16 13 17 13 9 7 4 4-10 1h-21l-7-4-14-12-10-8-13-11-14-11-10-8v53l-8 1-16-1v-116h24l1 50 16-12 10-9 14-11 16-13 7-5z" fill="#181717"/>
<path transform="translate(1161,1079)" d="m0 0h126v19l-50 1v96l-24 1-1-1v-97l-44 1-7-1z" fill="#181717"/>
<path transform="translate(1302,1078)" d="m0 0 28 1 5 5 8 10 11 13 9 11 6 7 5-5 10-11 9-11 13-15 3-4h27l-6 8-12 14-8 10-13 15-8 10-6 8-1 3-1 48h-24l-1-48-4-8-10-11-9-11-12-14-9-11-10-12z" fill="#171616"/>
<path transform="translate(457,1079)" d="m0 0h25l1 96 70 1v19l-63 1h-31l-1-1-1-9z" fill="#1C1B1B"/>
<path transform="translate(1465,1079)" d="m0 0h25l1 96 70 1v19l-62 1h-32l-1-1-1-15z" fill="#1F1E1E"/>
<path transform="translate(1258,1298)" d="m0 0 5 1 29 29v2h2v-31l5-1 1 1v41l-6-1-22-22-7-8-2 30-3 1-3-2v-38z" fill="#3A3A3A"/>
<path transform="translate(1169,1298)" d="m0 0h11l8 2 7 5 4 7v13l-4 8-9 6-4 1h-13l-9-3-6-7-2-4v-13l3-6 8-7zm1 5-8 4-3 5-1 4v7l3 7 6 4 4 1h10l6-3 5-6 1-10-3-7-5-4-6-2z" fill="#474747"/>
<path transform="translate(983,1298)" d="m0 0h5l1 1v17h30l1-18h5l1 1v40l-5 1-1-1-1-17h-29l-1 17-4 1-3-2v-39z" fill="#5E5D5D"/>
<path transform="translate(899,1298)" d="m0 0h12l9 2 4 4v3l-9-2-4-1h-12l-4 3 1 7 6 2 15 2 6 3 3 4-1 8-7 6-3 1h-16l-10-3-2-2v-4l9 2 5 1h14l3-1 1-6-2-2-21-4-6-4-2-2v-8l3-5z" fill="#595858"/>
<path transform="translate(808,1297)" d="m0 0 5 5 16 29 4 8-3 1-4-2-4-6-1-1h-27l-5 8-5 1 1-6 10-17 6-12 5-7zm0 8-4 5-7 14 1 1h20l-1-5-8-15z" fill="#474646"/>
<path transform="translate(701,1298)" d="m0 0h29l2 1v4h-26l1 13 24 1v4l-1 1h-24v17l-5 1-2-7v-27l1-7z" fill="#343434"/>
<path transform="translate(837,638)" d="m0 0 4 2 31 31-1 2-30-30-2-1 1 60v88l-1 15-2 1z" fill="#FEFEFE"/>
<path transform="translate(1087,1298)" d="m0 0 6 1v40l-5 1-2-2v-39z" fill="#585858"/>
<path transform="translate(1165,642)" d="m0 0h2l-1 4-52 52v-3l40-40 7-8zm-53 56m-2 1 2 1-3 2z" fill="#888"/>
<path transform="translate(1e3 909)" d="m0 0h4v50h-1v-24l-3 1z" fill="#FEFEFE"/>
<path transform="translate(1068,742)" d="m0 0v3l-9 9-3 4h-2l-2 4-31 31v-3l24-24 5-6 5-5h2l2-4z" fill="#FEFEFE"/>
<path transform="translate(1258,1298)" d="m0 0 3 1h-2l1 33 2 8-5-2v-38z" fill="#FEFEFE"/>
<path transform="translate(729,1318)" d="m0 0h3l-2 4h-24l1-2 7-1 15 1z" fill="#FEFEFE"/>
</svg>
